<?xml version="1.0" encoding="UTF-8"?>
<svg xmlns="http://www.w3.org/2000/svg" version="1.1" viewBox="0 0 933.1 149.8">
  <!-- Generator: Adobe Illustrator 28.6.0, SVG Export Plug-In . SVG Version: 1.2.0 Build 709)  -->
  <g>
    <g id="Layer_1">
      <g>
        <path d="M137.4,9.6v.8c0,5.6-9,8-9,17.2v110.8c0,6-3.4,9.4-9.2,9.4h-11.4c-4.6,0-7.4-2.4-10.4-6.6L26,46.4v79.4c0,9.2,9.4,11.8,9.4,17.4v.8c0,2.4-2,3.8-5,3.8H4.8c-3,0-4.8-1.4-4.8-3.8v-.8c0-5.6,8-8.2,8-17.4V27.8C8,18.6,0,16.2,0,10.4v-.8c0-2.4,1.8-3.8,4.8-3.8h29.8c5,0,7.8,2.2,10.8,6.4l65,90.4V27.6c0-9.2-8.8-11.6-8.8-17.2v-.8c0-2.4,2-3.8,4.8-3.8h26.2c2.8,0,4.8,1.4,4.8,3.8Z"/>
        <path d="M142.9,99.6c0-29.6,25.4-49.8,54-49.8s54.8,20.8,54.8,50.2-24.2,49.8-53.4,49.8-55.4-21.2-55.4-50.2ZM215.3,115.4c0-15.6-8.2-55.8-24-55.8s-13,8.8-13,25,8,55.4,24.2,55.4,12.8-9.6,12.8-24.6Z"/>
        <path d="M264.9,112.8v-47.4h-7.6c-2.6,0-4.6-2-4.6-4.6v-4.4c0-2.8,1.8-4.6,4.6-4.6h3.8c12.2,0,21.8-8,24.4-20.2.6-3.2,2.8-5.2,5.4-5.2h4.6c3.2,0,5.4,2,5.4,5.2v20.2h20.6c2.6,0,4.6,2,4.6,4.6v4.4c0,2.6-2,4.6-4.6,4.6h-20.6v48c0,6.8,4,10.8,9,10.8,7.8,0,11-3.8,13.2-7.4,2.8-3.6,7.6-2.4,7.6,1.4,0,15.4-11.4,31.6-33.2,31.6s-32.6-12.8-32.6-37Z"/>
        <path d="M333.6,144v-.8c0-5.8,8-8.2,8-17.4v-38c0-9.2-8-12-8-16.8v-.8c0-2.2,1.8-3.2,4.6-4.6l30.2-14.8c5.6-2.8,9,.4,9,4.2v70.8c0,9.2,9,11.6,9,17.4v.8c0,2.4-2,3.8-5,3.8h-43c-3,0-4.8-1.4-4.8-3.8ZM336.8,20c0-11.4,9.2-20,23-20s22.8,8.6,22.8,20-9.2,20-22.8,20-23-8.8-23-20Z"/>
        <path d="M389.8,99.6c0-29.6,25.4-49.8,54-49.8s54.8,20.8,54.8,50.2-24.2,49.8-53.4,49.8-55.4-21.2-55.4-50.2ZM462.2,115.4c0-15.6-8.2-55.8-24-55.8s-13,8.8-13,25,8,55.4,24.2,55.4,12.8-9.6,12.8-24.6Z"/>
        <path d="M620,143.4v.8c0,2.4-2,3.8-4.8,3.8h-40c-3,0-4.8-1.4-4.8-3.8v-.8c0-5.8,7.8-8.2,7.2-17.4l-2-35.8c-1-19.8-4.8-27.2-13.8-27.2s-13,7.8-13,19.4v43.6c0,9.2,8.8,11.6,8.8,17.4v.8c0,2.4-1.8,3.8-4.8,3.8h-43.2c-3,0-4.8-1.4-4.8-3.8v-.8c0-5.8,8.8-8.2,8.8-17.4v-39.4c0-9.6-10.6-10.8-10.6-16.6v-.6c0-2.4,2-3.6,4.8-5l28-13.8c5-2.6,7.6.8,7.6,4.8v9.4c5.4-9.6,15.4-15,28.6-15s35.8,9.8,38.2,41.6l2.6,34.6c.6,9.2,7.2,11.6,7.2,17.4Z"/>
        <path d="M808,9.6v.8c0,5.6-8.4,6.4-12,17.2l-37.8,110.2c-2.4,7-7.2,10-13.4,10s-11.2-3-13.2-9.2l-22.6-69.4-22.8,68.6c-2.2,6.8-6.4,10-12,10s-10.4-3-13-9.2l-46.8-110.8c-4.6-10.6-13-11.8-13-17.6v-.6c0-2.4,1.8-3.8,4.8-3.8h49.2c2.8,0,4.6,1.4,4.6,3.8v.8c0,5.6-10.8,8-7.4,17.4l27.8,75.6,19.8-60.8-4.8-15c-2.6-8.6-13-11.6-13-17.4v-.6c0-2.4,1.8-3.8,4.6-3.8h48.4c2.8,0,4.8,1.4,4.8,3.8v.6c0,5.8-12,6.8-9,17.4l21.6,75.2,23.8-75.2c3-9.2-8.2-11.6-8.2-17.2v-.8c0-2.4,1.8-3.8,4.8-3.8h30.2c2.8,0,4.6,1.4,4.6,3.8Z"/>
        <path d="M814.7,144v-.8c0-5.6,8-8,8-17.2V27.6c0-9-8-11.6-8-17.2v-.8c0-2.4,1.8-3.8,4.8-3.8h49.8c36.2,0,63.8,13.6,63.8,47.4s-22.6,49.6-57.2,49.6h-16.6v23.2c0,9.2,9,11.6,9,17.2v.8c0,2.4-2,3.8-4.8,3.8h-44c-3,0-4.8-1.4-4.8-3.8ZM875.9,88.8c13.2,0,19.6-12.8,19.6-27.2,0-26.2-13.8-42-26.2-42h-2.8c-4.6,0-7.2,3.6-7.2,9.6v50c0,6.2,2.6,9.6,9.2,9.6h7.4Z"/>
      </g>
    </g>
  </g>
</svg>